<?xml version="1.0" encoding="UTF-8" standalone="no"?> <!-- Generator: Adobe Fireworks 10, Export SVG Extension by Aaron Beall (http://fireworks.abeall.com) . Version: 0.6.0 --> <svg xmlns="http://www.w3.org/2000/svg" xmlns:xlink="http://www.w3.org/1999/xlink" id="" viewBox="0 0 85 50" style="background-color:#ffffff00" version="1.1" xml:space="preserve" x="0px" y="0px" width="85px" height="50px"> <g id="Vrstva%201"> <path d="M 10.9816 0 L 18.255 11.5714 L 25.5285 0 L 55.0503 0 L 41.9296 21 C 41.9296 21 41.9296 21.2857 42.2148 21.2857 L 55.1929 21.2857 L 55.1929 0 L 64.8909 0 L 64.8909 20.8571 C 65.7466 23.7143 67.8859 25.4286 70.1677 25.4286 C 72.5923 25.4286 75.1594 23.7143 75.7299 20.7143 L 75.7299 0 L 85 0 L 85 21.5714 C 84.5721 25.8571 80.7214 29.4286 77.0134 29.4286 L 25.8137 29.2857 L 38.9346 8.4286 L 38.9346 8 L 31.8037 8 L 18.255 29.4286 L 0 0 L 10.9816 0 Z" fill="#073b9b"></path> <path d="M 74.5889 0 L 69.5973 8 L 65.604 8 C 67.0303 5.4286 68.7416 2.7143 70.453 0 L 74.5889 0 Z" fill="#073b9b"></path> <path d="M 75.097 38.8506 L 79.5806 44.8571 L 80.4763 44.8571 L 80.4763 38.8571 L 83.0034 38.8571 L 83.0034 50 L 80.4763 50 C 78.9077 48 77.0986 45.8275 75.229 43.8571 C 75.0864 44 75.0864 44.2857 75.0864 50 L 72.1644 50 L 72.1644 38.8571 L 75.097 38.8506 Z" fill="#073b9b"></path> <path d="M 69.8826 38.8571 L 69.8826 41 L 63.8926 41 L 63.8926 43 L 69.4547 43 L 69.4547 45.1429 L 64.0352 45.1429 C 64.0352 45.2857 64.1779 45.4286 64.0352 47.5714 L 70.0251 47.5714 L 70.0251 50 L 60.755 50 L 60.755 38.8571 L 69.8826 38.8571 Z" fill="#073b9b"></path> <path d="M 58.4731 38.8571 L 58.4731 41 C 56.4766 43.1429 54.1946 45.4286 52.198 47.8571 L 58.7584 47.8571 L 58.7584 50 L 48.2047 50 L 48.2047 47.5714 L 54.3373 41 L 48.6326 41 L 48.6326 38.8571 L 58.4731 38.8571 Z" fill="#073b9b"></path> <path d="M 41.6443 38.8571 L 41.6443 47.4286 L 46.3507 47.4286 L 46.3507 50 L 38.2214 50 L 38.2214 38.8571 L 41.6443 38.8571 Z" fill="#073b9b"></path> <path d="M 31.5184 41 C 32.2316 41.1429 32.6594 41.5714 32.6594 42.2857 C 32.6594 42.5714 32.3741 43.4286 31.6611 43.4286 L 30.0923 43.4286 L 30.0923 41 L 31.5184 41 ZM 33.6577 38.8571 L 26.6694 38.8571 L 26.6694 50 L 30.0923 50 L 30.0923 45.7143 L 33.3725 45.7143 C 35.2265 45.7143 36.2249 43.4286 36.2249 42.1429 C 36.2249 41.1429 35.2265 38.7143 33.6577 38.8571 Z" fill="#073b9b"></path> <path d="M 76.5856 35.7143 C 76.8708 36 77.156 36.4286 77.5839 36.8571 C 77.8691 36.5714 78.1543 36.1429 78.5823 35.7143 L 80.2937 35.7143 C 78.4396 38 79.01 37.7143 77.5839 37.7143 C 76.3003 37.7143 76.0151 38 75.0168 35.7143 L 76.5856 35.7143 Z" fill="#073b9b"></path> </g> </svg> 